<?xml version="1.0" encoding="utf-8"?>
<!-- Generator: Adobe Illustrator 16.0.4, SVG Export Plug-In . SVG Version: 6.00 Build 0)  -->
<!DOCTYPE svg PUBLIC "-//W3C//DTD SVG 1.1//EN" "http://www.w3.org/Graphics/SVG/1.1/DTD/svg11.dtd">
<svg version="1.1" id="Layer_1" xmlns="http://www.w3.org/2000/svg" xmlns:xlink="http://www.w3.org/1999/xlink" x="0px" y="0px"
	 width="1920px" height="3500px" viewBox="0 0 1920 3500" enable-background="new 0 0 1920 3500" xml:space="preserve">
<pattern  x="560.5" y="1778.5" width="57.6" height="57.6" patternUnits="userSpaceOnUse" id="Crosses" viewBox="0 -57.6 57.6 57.6" overflow="visible">
	<g>
		<polygon fill="none" points="0,0 57.6,0 57.6,-57.6 0,-57.6 		"/>
		<g>
			<polygon fill="none" points="0,0 57.6,0 57.6,-57.6 0,-57.6 			"/>
			<line fill="none" stroke="#000000" stroke-width="0.3" x1="52.5" y1="-3.6" x2="55.5" y2="-3.6"/>
			<line fill="none" stroke="#000000" stroke-width="0.3" x1="38.1" y1="-3.6" x2="41.1" y2="-3.6"/>
			<line fill="none" stroke="#000000" stroke-width="0.3" x1="23.7" y1="-3.6" x2="26.7" y2="-3.6"/>
			<line fill="none" stroke="#000000" stroke-width="0.3" x1="9.3" y1="-3.6" x2="12.3" y2="-3.6"/>
			<line fill="none" stroke="#000000" stroke-width="0.3" x1="45.3" y1="-10.801" x2="48.3" y2="-10.801"/>
			<line fill="none" stroke="#000000" stroke-width="0.3" x1="30.9" y1="-10.801" x2="33.9" y2="-10.801"/>
			<line fill="none" stroke="#000000" stroke-width="0.3" x1="16.5" y1="-10.801" x2="19.5" y2="-10.801"/>
			<line fill="none" stroke="#000000" stroke-width="0.3" x1="2.1" y1="-10.801" x2="5.1" y2="-10.801"/>
			<line fill="none" stroke="#000000" stroke-width="0.3" x1="52.5" y1="-18" x2="55.5" y2="-18"/>
			<line fill="none" stroke="#000000" stroke-width="0.3" x1="38.1" y1="-18" x2="41.1" y2="-18"/>
			<line fill="none" stroke="#000000" stroke-width="0.3" x1="23.7" y1="-18" x2="26.7" y2="-18"/>
			<line fill="none" stroke="#000000" stroke-width="0.3" x1="9.3" y1="-18" x2="12.3" y2="-18"/>
			<line fill="none" stroke="#000000" stroke-width="0.3" x1="45.3" y1="-25.2" x2="48.3" y2="-25.2"/>
			<line fill="none" stroke="#000000" stroke-width="0.3" x1="30.9" y1="-25.2" x2="33.9" y2="-25.2"/>
			<line fill="none" stroke="#000000" stroke-width="0.3" x1="16.5" y1="-25.2" x2="19.5" y2="-25.2"/>
			<line fill="none" stroke="#000000" stroke-width="0.3" x1="2.1" y1="-25.2" x2="5.1" y2="-25.2"/>
			<line fill="none" stroke="#000000" stroke-width="0.3" x1="52.5" y1="-32.4" x2="55.5" y2="-32.4"/>
			<line fill="none" stroke="#000000" stroke-width="0.3" x1="38.1" y1="-32.4" x2="41.1" y2="-32.4"/>
			<line fill="none" stroke="#000000" stroke-width="0.3" x1="23.7" y1="-32.4" x2="26.7" y2="-32.4"/>
			<line fill="none" stroke="#000000" stroke-width="0.3" x1="9.3" y1="-32.4" x2="12.3" y2="-32.4"/>
			<line fill="none" stroke="#000000" stroke-width="0.3" x1="45.3" y1="-39.6" x2="48.3" y2="-39.6"/>
			<line fill="none" stroke="#000000" stroke-width="0.3" x1="30.9" y1="-39.6" x2="33.9" y2="-39.6"/>
			<line fill="none" stroke="#000000" stroke-width="0.3" x1="16.5" y1="-39.6" x2="19.5" y2="-39.6"/>
			<line fill="none" stroke="#000000" stroke-width="0.3" x1="2.1" y1="-39.6" x2="5.1" y2="-39.6"/>
			<line fill="none" stroke="#000000" stroke-width="0.3" x1="52.5" y1="-46.8" x2="55.5" y2="-46.8"/>
			<line fill="none" stroke="#000000" stroke-width="0.3" x1="38.1" y1="-46.8" x2="41.1" y2="-46.8"/>
			<line fill="none" stroke="#000000" stroke-width="0.3" x1="23.7" y1="-46.8" x2="26.7" y2="-46.8"/>
			<line fill="none" stroke="#000000" stroke-width="0.3" x1="9.3" y1="-46.8" x2="12.3" y2="-46.8"/>
			<line fill="none" stroke="#000000" stroke-width="0.3" x1="45.3" y1="-54" x2="48.3" y2="-54"/>
			<line fill="none" stroke="#000000" stroke-width="0.3" x1="30.9" y1="-54" x2="33.9" y2="-54"/>
			<line fill="none" stroke="#000000" stroke-width="0.3" x1="16.5" y1="-54" x2="19.5" y2="-54"/>
			<line fill="none" stroke="#000000" stroke-width="0.3" x1="2.1" y1="-54" x2="5.1" y2="-54"/>
			<line fill="none" stroke="#000000" stroke-width="0.3" x1="54" y1="-2.1" x2="54" y2="-5.1"/>
			<line fill="none" stroke="#000000" stroke-width="0.3" x1="39.6" y1="-2.1" x2="39.6" y2="-5.1"/>
			<line fill="none" stroke="#000000" stroke-width="0.3" x1="25.2" y1="-2.1" x2="25.2" y2="-5.1"/>
			<line fill="none" stroke="#000000" stroke-width="0.3" x1="10.8" y1="-2.1" x2="10.8" y2="-5.1"/>
			<line fill="none" stroke="#000000" stroke-width="0.3" x1="46.8" y1="-9.301" x2="46.8" y2="-12.301"/>
			<line fill="none" stroke="#000000" stroke-width="0.3" x1="32.4" y1="-9.301" x2="32.4" y2="-12.301"/>
			<line fill="none" stroke="#000000" stroke-width="0.3" x1="18" y1="-9.301" x2="18" y2="-12.301"/>
			<line fill="none" stroke="#000000" stroke-width="0.3" x1="3.6" y1="-9.301" x2="3.6" y2="-12.301"/>
			<line fill="none" stroke="#000000" stroke-width="0.3" x1="54" y1="-16.5" x2="54" y2="-19.5"/>
			<line fill="none" stroke="#000000" stroke-width="0.3" x1="39.6" y1="-16.5" x2="39.6" y2="-19.5"/>
			<line fill="none" stroke="#000000" stroke-width="0.3" x1="25.2" y1="-16.5" x2="25.2" y2="-19.5"/>
			<line fill="none" stroke="#000000" stroke-width="0.3" x1="10.8" y1="-16.5" x2="10.8" y2="-19.5"/>
			<line fill="none" stroke="#000000" stroke-width="0.3" x1="46.8" y1="-23.7" x2="46.8" y2="-26.7"/>
			<line fill="none" stroke="#000000" stroke-width="0.3" x1="32.4" y1="-23.7" x2="32.4" y2="-26.7"/>
			<line fill="none" stroke="#000000" stroke-width="0.3" x1="18" y1="-23.7" x2="18" y2="-26.7"/>
			<line fill="none" stroke="#000000" stroke-width="0.3" x1="3.6" y1="-23.7" x2="3.6" y2="-26.7"/>
			<line fill="none" stroke="#000000" stroke-width="0.3" x1="54" y1="-30.9" x2="54" y2="-33.9"/>
			<line fill="none" stroke="#000000" stroke-width="0.3" x1="39.6" y1="-30.9" x2="39.6" y2="-33.9"/>
			<line fill="none" stroke="#000000" stroke-width="0.3" x1="25.2" y1="-30.9" x2="25.2" y2="-33.9"/>
			<line fill="none" stroke="#000000" stroke-width="0.3" x1="10.8" y1="-30.9" x2="10.8" y2="-33.9"/>
			<line fill="none" stroke="#000000" stroke-width="0.3" x1="46.8" y1="-38.1" x2="46.8" y2="-41.1"/>
			<line fill="none" stroke="#000000" stroke-width="0.3" x1="32.4" y1="-38.1" x2="32.4" y2="-41.1"/>
			<line fill="none" stroke="#000000" stroke-width="0.3" x1="18" y1="-38.1" x2="18" y2="-41.1"/>
			<line fill="none" stroke="#000000" stroke-width="0.3" x1="3.6" y1="-38.1" x2="3.6" y2="-41.1"/>
			<line fill="none" stroke="#000000" stroke-width="0.3" x1="54" y1="-45.3" x2="54" y2="-48.3"/>
			<line fill="none" stroke="#000000" stroke-width="0.3" x1="39.6" y1="-45.3" x2="39.6" y2="-48.3"/>
			<line fill="none" stroke="#000000" stroke-width="0.3" x1="25.2" y1="-45.3" x2="25.2" y2="-48.3"/>
			<line fill="none" stroke="#000000" stroke-width="0.3" x1="10.8" y1="-45.3" x2="10.8" y2="-48.3"/>
			<line fill="none" stroke="#000000" stroke-width="0.3" x1="46.8" y1="-52.5" x2="46.8" y2="-55.5"/>
			<line fill="none" stroke="#000000" stroke-width="0.3" x1="32.4" y1="-52.5" x2="32.4" y2="-55.5"/>
			<line fill="none" stroke="#000000" stroke-width="0.3" x1="18" y1="-52.5" x2="18" y2="-55.5"/>
			<line fill="none" stroke="#000000" stroke-width="0.3" x1="3.6" y1="-52.5" x2="3.6" y2="-55.5"/>
		</g>
	</g>
</pattern>
<pattern  x="560.5" y="1778.5" width="57.6" height="57.6" patternUnits="userSpaceOnUse" id="Crosses_2" viewBox="0 -57.6 57.6 57.6" overflow="visible">
	<g>
		<polygon fill="none" points="0,-57.6 57.6,-57.6 57.6,0 0,0 		"/>
		<line fill="none" stroke="#231F20" stroke-width="0.3" x1="52.5" y1="-54" x2="55.5" y2="-54"/>
		<line fill="none" stroke="#231F20" stroke-width="0.3" x1="38.1" y1="-54" x2="41.1" y2="-54"/>
		<line fill="none" stroke="#231F20" stroke-width="0.3" x1="23.7" y1="-54" x2="26.7" y2="-54"/>
		<line fill="none" stroke="#231F20" stroke-width="0.3" x1="9.3" y1="-54" x2="12.3" y2="-54"/>
		<line fill="none" stroke="#231F20" stroke-width="0.3" x1="45.3" y1="-46.8" x2="48.3" y2="-46.8"/>
		<line fill="none" stroke="#231F20" stroke-width="0.3" x1="30.9" y1="-46.8" x2="33.9" y2="-46.8"/>
		<line fill="none" stroke="#231F20" stroke-width="0.3" x1="16.5" y1="-46.8" x2="19.5" y2="-46.8"/>
		<line fill="none" stroke="#231F20" stroke-width="0.3" x1="2.1" y1="-46.8" x2="5.1" y2="-46.8"/>
		<line fill="none" stroke="#231F20" stroke-width="0.3" x1="52.5" y1="-39.6" x2="55.5" y2="-39.6"/>
		<line fill="none" stroke="#231F20" stroke-width="0.3" x1="38.1" y1="-39.6" x2="41.1" y2="-39.6"/>
		<line fill="none" stroke="#231F20" stroke-width="0.3" x1="23.7" y1="-39.6" x2="26.7" y2="-39.6"/>
		<line fill="none" stroke="#231F20" stroke-width="0.3" x1="9.3" y1="-39.6" x2="12.3" y2="-39.6"/>
		<line fill="none" stroke="#231F20" stroke-width="0.3" x1="45.3" y1="-32.4" x2="48.3" y2="-32.4"/>
		<line fill="none" stroke="#231F20" stroke-width="0.3" x1="30.9" y1="-32.4" x2="33.9" y2="-32.4"/>
		<line fill="none" stroke="#231F20" stroke-width="0.3" x1="16.5" y1="-32.4" x2="19.5" y2="-32.4"/>
		<line fill="none" stroke="#231F20" stroke-width="0.3" x1="2.1" y1="-32.4" x2="5.1" y2="-32.4"/>
		<line fill="none" stroke="#231F20" stroke-width="0.3" x1="52.5" y1="-25.2" x2="55.5" y2="-25.2"/>
		<line fill="none" stroke="#231F20" stroke-width="0.3" x1="38.1" y1="-25.2" x2="41.1" y2="-25.2"/>
		<line fill="none" stroke="#231F20" stroke-width="0.3" x1="23.7" y1="-25.2" x2="26.7" y2="-25.2"/>
		<line fill="none" stroke="#231F20" stroke-width="0.3" x1="9.3" y1="-25.2" x2="12.3" y2="-25.2"/>
		<line fill="none" stroke="#231F20" stroke-width="0.3" x1="45.3" y1="-18" x2="48.3" y2="-18"/>
		<line fill="none" stroke="#231F20" stroke-width="0.3" x1="30.9" y1="-18" x2="33.9" y2="-18"/>
		<line fill="none" stroke="#231F20" stroke-width="0.3" x1="16.5" y1="-18" x2="19.5" y2="-18"/>
		<line fill="none" stroke="#231F20" stroke-width="0.3" x1="2.1" y1="-18" x2="5.1" y2="-18"/>
		<line fill="none" stroke="#231F20" stroke-width="0.3" x1="52.5" y1="-10.8" x2="55.5" y2="-10.8"/>
		<line fill="none" stroke="#231F20" stroke-width="0.3" x1="38.1" y1="-10.8" x2="41.1" y2="-10.8"/>
		<line fill="none" stroke="#231F20" stroke-width="0.3" x1="23.7" y1="-10.8" x2="26.7" y2="-10.8"/>
		<line fill="none" stroke="#231F20" stroke-width="0.3" x1="9.3" y1="-10.8" x2="12.3" y2="-10.8"/>
		<line fill="none" stroke="#231F20" stroke-width="0.3" x1="45.3" y1="-3.6" x2="48.3" y2="-3.6"/>
		<line fill="none" stroke="#231F20" stroke-width="0.3" x1="30.9" y1="-3.6" x2="33.9" y2="-3.6"/>
		<line fill="none" stroke="#231F20" stroke-width="0.3" x1="16.5" y1="-3.6" x2="19.5" y2="-3.6"/>
		<line fill="none" stroke="#231F20" stroke-width="0.3" x1="2.1" y1="-3.6" x2="5.1" y2="-3.6"/>
		<line fill="none" stroke="#231F20" stroke-width="0.3" x1="54" y1="-55.5" x2="54" y2="-52.5"/>
		<line fill="none" stroke="#231F20" stroke-width="0.3" x1="39.6" y1="-55.5" x2="39.6" y2="-52.5"/>
		<line fill="none" stroke="#231F20" stroke-width="0.3" x1="25.2" y1="-55.5" x2="25.2" y2="-52.5"/>
		<line fill="none" stroke="#231F20" stroke-width="0.3" x1="10.8" y1="-55.5" x2="10.8" y2="-52.5"/>
		<line fill="none" stroke="#231F20" stroke-width="0.3" x1="46.8" y1="-48.3" x2="46.8" y2="-45.3"/>
		<line fill="none" stroke="#231F20" stroke-width="0.3" x1="32.4" y1="-48.3" x2="32.4" y2="-45.3"/>
		<line fill="none" stroke="#231F20" stroke-width="0.3" x1="18" y1="-48.3" x2="18" y2="-45.3"/>
		<line fill="none" stroke="#231F20" stroke-width="0.3" x1="3.6" y1="-48.3" x2="3.6" y2="-45.3"/>
		<line fill="none" stroke="#231F20" stroke-width="0.3" x1="54" y1="-41.1" x2="54" y2="-38.1"/>
		<line fill="none" stroke="#231F20" stroke-width="0.3" x1="39.6" y1="-41.1" x2="39.6" y2="-38.1"/>
		<line fill="none" stroke="#231F20" stroke-width="0.3" x1="25.2" y1="-41.1" x2="25.2" y2="-38.1"/>
		<line fill="none" stroke="#231F20" stroke-width="0.3" x1="10.8" y1="-41.1" x2="10.8" y2="-38.1"/>
		<line fill="none" stroke="#231F20" stroke-width="0.3" x1="46.8" y1="-33.9" x2="46.8" y2="-30.9"/>
		<line fill="none" stroke="#231F20" stroke-width="0.3" x1="32.4" y1="-33.9" x2="32.4" y2="-30.9"/>
		<line fill="none" stroke="#231F20" stroke-width="0.3" x1="18" y1="-33.9" x2="18" y2="-30.9"/>
		<line fill="none" stroke="#231F20" stroke-width="0.3" x1="3.6" y1="-33.9" x2="3.6" y2="-30.9"/>
		<line fill="none" stroke="#231F20" stroke-width="0.3" x1="54" y1="-26.7" x2="54" y2="-23.7"/>
		<line fill="none" stroke="#231F20" stroke-width="0.3" x1="39.6" y1="-26.7" x2="39.6" y2="-23.7"/>
		<line fill="none" stroke="#231F20" stroke-width="0.3" x1="25.2" y1="-26.7" x2="25.2" y2="-23.7"/>
		<line fill="none" stroke="#231F20" stroke-width="0.3" x1="10.8" y1="-26.7" x2="10.8" y2="-23.7"/>
		<line fill="none" stroke="#231F20" stroke-width="0.3" x1="46.8" y1="-19.5" x2="46.8" y2="-16.5"/>
		<line fill="none" stroke="#231F20" stroke-width="0.3" x1="32.4" y1="-19.5" x2="32.4" y2="-16.5"/>
		<line fill="none" stroke="#231F20" stroke-width="0.3" x1="18" y1="-19.5" x2="18" y2="-16.5"/>
		<line fill="none" stroke="#231F20" stroke-width="0.3" x1="3.6" y1="-19.5" x2="3.6" y2="-16.5"/>
		<line fill="none" stroke="#231F20" stroke-width="0.3" x1="54" y1="-12.3" x2="54" y2="-9.3"/>
		<line fill="none" stroke="#231F20" stroke-width="0.3" x1="39.6" y1="-12.3" x2="39.6" y2="-9.3"/>
		<line fill="none" stroke="#231F20" stroke-width="0.3" x1="25.2" y1="-12.3" x2="25.2" y2="-9.3"/>
		<line fill="none" stroke="#231F20" stroke-width="0.3" x1="10.8" y1="-12.3" x2="10.8" y2="-9.3"/>
		<line fill="none" stroke="#231F20" stroke-width="0.3" x1="46.8" y1="-5.1" x2="46.8" y2="-2.1"/>
		<line fill="none" stroke="#231F20" stroke-width="0.3" x1="32.4" y1="-5.1" x2="32.4" y2="-2.1"/>
		<line fill="none" stroke="#231F20" stroke-width="0.3" x1="18" y1="-5.1" x2="18" y2="-2.1"/>
		<line fill="none" stroke="#231F20" stroke-width="0.3" x1="3.6" y1="-5.1" x2="3.6" y2="-2.1"/>
	</g>
</pattern>
<g id="Layer_1_1_" display="none">
</g>
<g id="bg_x5F_sky">
	
		<linearGradient id="SVGID_1_" gradientUnits="userSpaceOnUse" x1="956" y1="3223" x2="955.9998" y2="-277" gradientTransform="matrix(1 0 0 -1 4 3223)">
		<stop  offset="0" style="stop-color:#233159"/>
		<stop  offset="0.0114" style="stop-color:#25345E"/>
		<stop  offset="0.0726" style="stop-color:#2E4174"/>
		<stop  offset="0.1352" style="stop-color:#324B86"/>
		<stop  offset="0.1986" style="stop-color:#345194"/>
		<stop  offset="0.2629" style="stop-color:#34569E"/>
		<stop  offset="0.329" style="stop-color:#3458A5"/>
		<stop  offset="0.3994" style="stop-color:#355AA9"/>
		<stop  offset="0.7294" style="stop-color:#AD8016"/>
	</linearGradient>
	<rect fill="url(#SVGID_1_)" stroke="#000000" stroke-miterlimit="10" width="1920" height="3500"/>
</g>
<g id="Layer_9" display="none">
	<pattern  id="SVGID_2_" xlink:href="#Crosses" patternTransform="matrix(1 0 0 -1 -42.0996 -12840.2979)">
	</pattern>
	<rect display="inline" fill="url(#SVGID_2_)" width="1920" height="1500"/>
</g>
<g id="bg_x5F_skyline" display="none">
	<polyline display="inline" points="0,1500.004 0,1011.952 31,1011.952 31,1088.12 55.667,1088.12 55.667,952.709 61,952.709 
		61,839.878 97.667,839.878 97.667,955.536 103.667,955.536 103.667,983.744 117.667,983.744 117.667,1107.872 123,1107.872 
		123,1023.241 129,1023.241 129,966.817 133.667,966.817 133.667,947.073 141,947.073 181.667,947.073 181.667,961.173 
		188.333,961.173 188.333,1031.704 193.667,1031.704 193.667,1107.872 206.333,1107.872 206.333,1169.941 222.333,1169.941 
		222.333,1105.046 257,1105.046 257,1147.361 267,1147.361 267,1169.941 275,1169.941 275,1147.361 279.667,1147.361 
		279.667,1169.941 293,1169.941 293,978.1 337.667,978.1 337.667,1003.488 357.667,1003.488 357.667,1040.168 379.667,1040.168 
		379.667,1138.899 403,1138.899 403,1040.168 429.667,1040.168 429.667,1014.778 445,1014.778 445,1037.342 462.333,1037.342 
		462.333,1059.912 497.667,1059.912 497.667,932.965 503.667,932.965 503.667,890.648 541,890.648 541,932.965 552.333,932.965 
		552.333,1065.557 566.333,1065.557 566,1114.931 578,1114.931 578.333,839.878 633.667,839.878 633.667,893.467 647.667,893.467 
		647.667,1034.521 665.667,1034.521 665.667,980.925 678.333,980.925 678.333,1002.092 681.667,1002.092 681.667,941.427 
		726.333,941.427 726.333,1107.872 740.333,1107.872 740.333,1045.804 774.333,1045.804 774.333,983.744 786.333,983.744 
		786.333,910.394 805.667,910.394 805.667,1223.531 820.333,1223.531 820.333,1051.449 836.333,1051.449 836.333,969.636 
		845,969.636 845,935.783 855,935.783 855,890.648 877.667,890.648 877.667,921.683 884.333,921.683 884.333,1133.262 
		891.667,1133.262 891.667,1071.193 941,1071.193 941,1169.941 960,1169.941 960,944.246 990.334,944.246 990.334,1169.941 
		1002.334,1169.941 1002.334,975.276 1022,892.054 1053.668,892.054 1073.168,974.57 1073.168,1169.941 1083.668,1169.941 
		1083.668,932.96 1117,839.878 1161.668,839.878 1161.668,983.739 1176.334,983.739 1176.334,924.498 1211,924.498 1211,1184.033 
		1300.334,1184.033 1300.334,1079.657 1329.668,1079.657 1329.668,1212.244 1341.668,1212.244 1341.668,1011.952 1389,1011.952 
		1389,1150.181 1405,1150.181 1405,1189.678 1431,1189.678 1431,1028.878 1445.668,1028.878 1445.668,952.709 1464.334,952.709 
		1513,952.709 1513,1028.878 1527,1028.878 1527,910.394 1575,910.394 1575,1102.224 1589,1102.224 1589,1031.696 1627,1031.696 
		1627,989.381 1673.668,989.381 1673.668,932.957 1702.334,932.957 1702.334,980.917 1731.668,980.917 1731.668,938.602 
		1739,938.602 1739,918.854 1750.334,918.854 1750.334,944.242 1757.668,944.242 1757.668,980.917 1795,980.917 1795,1057.085 
		1818.334,1057.085 1818.334,1124.791 1855,1124.791 1855,1071.189 1920,1071.189 1920,1500.004 	"/>
	<polyline display="inline" fill="#262324" points="1847,1436.004 1847,1159.361 1810.042,1159.361 1810.042,1202.535 
		1780.635,1202.535 1780.635,1125.779 1774.276,1125.779 1774.276,1061.823 1730.562,1061.823 1730.562,1127.383 1723.409,1127.383 
		1723.409,1143.372 1706.719,1143.372 1706.719,1213.73 1700.361,1213.73 1700.361,1165.76 1693.207,1165.76 1693.207,1133.777 
		1687.645,1133.777 1687.645,1122.585 1678.902,1122.585 1630.419,1122.585 1630.419,1130.577 1622.471,1130.577 1622.471,1170.557 
		1616.112,1170.557 1616.112,1213.73 1601.012,1213.73 1601.012,1248.914 1581.938,1248.914 1581.938,1212.129 1540.608,1212.129 
		1540.608,1236.114 1528.686,1236.114 1528.686,1248.914 1519.148,1248.914 1519.148,1236.114 1513.584,1236.114 1513.584,1248.914 
		1497.688,1248.914 1497.688,1140.171 1444.438,1140.171 1444.438,1154.562 1420.594,1154.562 1420.594,1175.354 1394.366,1175.354 
		1394.366,1231.317 1366.549,1231.317 1366.549,1175.354 1334.756,1175.354 1334.756,1160.963 1316.477,1160.963 1316.477,1173.752 
		1295.812,1173.752 1295.812,1186.546 1253.688,1186.546 1253.688,1114.588 1246.534,1114.588 1246.534,1090.602 1202.026,1090.602 
		1202.026,1114.588 1188.515,1114.588 1188.515,1189.745 1171.823,1189.745 1172.222,1217.732 1157.915,1217.732 1157.518,1061.823 
		1091.551,1061.823 1091.551,1092.199 1074.859,1092.199 1074.859,1172.154 1053.4,1172.154 1053.4,1141.773 1038.299,1141.773 
		1038.299,1153.771 1034.324,1153.771 1034.324,1119.384 981.073,1119.384 981.073,1213.73 964.384,1213.73 964.384,1178.549 
		923.849,1178.549 923.849,1143.372 909.542,1143.372 909.542,1101.793 886.494,1101.793 886.494,1279.29 869.008,1279.29 
		869.008,1181.748 849.933,1181.748 849.933,1135.374 839.602,1135.374 839.602,1116.186 827.68,1116.186 827.68,1090.602 
		800.656,1090.602 800.656,1108.192 792.708,1108.192 792.708,1228.123 783.966,1228.123 783.966,1192.939 725.151,1192.939 
		725.151,1248.914 702.5,1248.914 702.5,1120.982 666.336,1120.982 666.336,1248.914 652.03,1248.914 652.03,1138.571 
		628.584,1091.398 590.83,1091.398 567.583,1138.171 567.583,1248.914 555.064,1248.914 555.064,1114.584 515.327,1061.823 
		462.074,1061.823 462.074,1143.368 444.589,1143.368 444.589,1109.788 403.261,1109.788 403.261,1256.9 296.758,1256.9 
		296.758,1197.737 261.786,1197.737 261.786,1272.893 247.48,1272.893 247.48,1159.361 191.052,1159.361 191.052,1237.712 
		171.977,1237.712 171.977,1260.101 140.979,1260.101 140.979,1168.955 123.493,1168.955 123.493,1125.779 101.24,1125.779 
		43.22,1125.779 43.22,1168.955 26.529,1168.955 26.529,1101.793 -30.695,1101.793 -30.695,1210.53 -47.386,1210.53 
		-47.386,1170.553 -92.689,1170.553 -92.689,1146.566 -148.326,1146.566 -148.326,1114.584 -182.501,1114.584 -182.501,1141.77 
		-217.473,1141.77 -217.473,1117.783 -226.214,1117.783 -226.214,1106.588 -239.727,1106.588 -239.727,1120.979 -248.47,1120.979 
		-248.47,1141.77 -292.977,1141.77 -292.977,1184.943 -320.795,1184.943 -320.795,1223.32 -364.508,1223.32 -364.508,1192.938 
		-442,1192.938 -442,1436.004 	"/>
	
		<linearGradient id="SVGID_3_" gradientUnits="userSpaceOnUse" x1="260.7363" y1="1627.3125" x2="260.7363" y2="2406.8755" gradientTransform="matrix(1 0 0 -1 4 3223)">
		<stop  offset="0" style="stop-color:#B9E5FB"/>
		<stop  offset="1" style="stop-color:#000000;stop-opacity:0"/>
	</linearGradient>
	<polygon display="inline" fill="url(#SVGID_3_)" points="248.987,1595.688 116.995,816.125 412.479,816.125 	"/>
	
		<linearGradient id="SVGID_4_" gradientUnits="userSpaceOnUse" x1="876.7603" y1="1627.3125" x2="876.7602" y2="2406.8755" gradientTransform="matrix(1 0 0 -1 4 3223)">
		<stop  offset="0" style="stop-color:#B9E5FB"/>
		<stop  offset="1" style="stop-color:#000000;stop-opacity:0"/>
	</linearGradient>
	<polygon display="inline" fill="url(#SVGID_4_)" points="865.01,1595.688 733.018,816.125 1028.503,816.125 	"/>
	
		<linearGradient id="SVGID_5_" gradientUnits="userSpaceOnUse" x1="1605.2422" y1="1584.3057" x2="1605.2422" y2="2363.8677" gradientTransform="matrix(1 0 0 -1 4 3223)">
		<stop  offset="0" style="stop-color:#B9E5FB"/>
		<stop  offset="1" style="stop-color:#000000;stop-opacity:0"/>
	</linearGradient>
	<polygon display="inline" fill="url(#SVGID_5_)" points="1593.491,1638.694 1461.499,859.132 1756.983,859.132 	"/>
	<polyline display="inline" fill="#2A2A2B" points="1951,1528 1951,1202.562 1914.042,1202.562 1914.042,1253.351 
		1884.635,1253.351 1884.635,1163.057 1878.276,1163.057 1878.276,1087.819 1834.562,1087.819 1834.562,1164.942 1827.409,1164.942 
		1827.409,1183.752 1810.719,1183.752 1810.719,1266.521 1804.361,1266.521 1804.361,1210.089 1797.207,1210.089 1797.207,1172.465 
		1791.645,1172.465 1791.645,1159.299 1782.902,1159.299 1734.419,1159.299 1734.419,1168.7 1726.471,1168.7 1726.471,1215.73 
		1720.112,1215.73 1720.112,1266.521 1705.012,1266.521 1705.012,1307.91 1685.938,1307.91 1685.938,1264.637 1644.608,1264.637 
		1644.608,1292.854 1632.686,1292.854 1632.686,1307.91 1623.148,1307.91 1623.148,1292.854 1617.584,1292.854 1617.584,1307.91 
		1601.688,1307.91 1601.688,1179.986 1548.438,1179.986 1548.438,1196.916 1524.594,1196.916 1524.594,1221.375 1498.366,1221.375 
		1498.366,1287.21 1470.549,1287.21 1470.549,1221.375 1438.756,1221.375 1438.756,1204.445 1420.477,1204.445 1420.477,1219.491 
		1399.812,1219.491 1399.812,1234.541 1357.688,1234.541 1357.688,1149.891 1350.534,1149.891 1350.534,1121.674 1306.026,1121.674 
		1306.026,1149.891 1292.515,1149.891 1292.515,1238.305 1275.823,1238.305 1276.222,1271.229 1261.915,1271.229 1261.518,1087.819 
		1195.551,1087.819 1195.551,1123.553 1178.859,1123.553 1178.859,1217.611 1157.4,1217.611 1157.4,1181.872 1142.299,1181.872 
		1142.299,1195.985 1138.324,1195.985 1138.324,1155.533 1085.073,1155.533 1085.073,1266.521 1068.384,1266.521 1068.384,1225.134 
		1027.849,1225.134 1027.849,1183.752 1013.542,1183.752 1013.542,1134.84 990.494,1134.84 990.494,1343.645 973.008,1343.645 
		973.008,1228.896 953.933,1228.896 953.933,1174.344 943.602,1174.344 943.602,1151.77 931.68,1151.77 931.68,1121.674 
		904.656,1121.674 904.656,1142.367 896.708,1142.367 896.708,1283.452 887.966,1283.452 887.966,1242.062 829.151,1242.062 
		829.151,1307.91 806.5,1307.91 806.5,1157.413 770.336,1157.413 770.336,1307.91 756.03,1307.91 756.03,1178.104 732.584,1122.611 
		694.83,1122.611 671.583,1177.634 671.583,1307.91 659.064,1307.91 659.064,1149.887 619.327,1087.819 566.074,1087.819 
		566.074,1183.748 548.589,1183.748 548.589,1144.244 507.261,1144.244 507.261,1317.306 400.758,1317.306 400.758,1247.707 
		365.786,1247.707 365.786,1336.118 351.48,1336.118 351.48,1202.562 295.052,1202.562 295.052,1294.732 275.977,1294.732 
		275.977,1321.07 244.979,1321.07 244.979,1213.848 227.493,1213.848 227.493,1163.057 205.24,1163.057 147.22,1163.057 
		147.22,1213.848 130.529,1213.848 130.529,1134.84 73.305,1134.84 73.305,1262.756 56.614,1262.756 56.614,1215.727 
		11.311,1215.727 11.311,1187.51 -44.326,1187.51 -44.326,1149.886 -78.501,1149.886 -78.501,1181.866 -113.473,1181.866 
		-113.473,1153.649 -122.214,1153.649 -122.214,1140.48 -135.727,1140.48 -135.727,1157.41 -144.47,1157.41 -144.47,1181.866 
		-188.977,1181.866 -188.977,1232.656 -216.795,1232.656 -216.795,1277.803 -260.508,1277.803 -260.508,1242.061 -338,1242.061 
		-338,1528 	"/>
</g>
<g id="navigation" display="none">
	<g display="inline">
		<rect x="2469.513" y="264.647" opacity="0.7" fill="#FFFFFF" enable-background="new    " width="200" height="450.001"/>
		<path opacity="0.7" fill="#FFFFFF" enable-background="new    " d="M2468.963,714.648h-68.571c-6.312,0-11.429-4.479-11.429-10
			V274.647c0-5.523,5.116-10,11.429-10h68.571"/>
		<text transform="matrix(1 0 0 1 2418.3008 304.7871)" font-family="'Krungthep'" font-size="32">1</text>
		<text transform="matrix(1 0 0 1 2418.3008 381.5874)" font-family="'Krungthep'" font-size="32">2</text>
		<text transform="matrix(1 0 0 1 2418.3008 458.3877)" font-family="'Krungthep'" font-size="32">3</text>
		<text transform="matrix(1 0 0 1 2418.3008 535.1875)" font-family="'Krungthep'" font-size="32">4</text>
		<text transform="matrix(1 0 0 1 2418.3008 611.9878)" font-family="'Krungthep'" font-size="32">5</text>
		<text transform="matrix(1 0 0 1 2418.3008 688.7876)" font-family="'Krungthep'" font-size="32">6</text>
		<line fill="none" stroke="#58595B" stroke-miterlimit="10" x1="2388.963" y1="323.788" x2="2468.963" y2="323.788"/>
		<line fill="none" stroke="#58595B" stroke-miterlimit="10" x1="2388.963" y1="405.788" x2="2468.963" y2="405.788"/>
		<line fill="none" stroke="#58595B" stroke-miterlimit="10" x1="2389.963" y1="482.788" x2="2469.963" y2="482.788"/>
		<line fill="none" stroke="#58595B" stroke-miterlimit="10" x1="2389.963" y1="557.788" x2="2469.963" y2="557.788"/>
		<line fill="none" stroke="#58595B" stroke-miterlimit="10" x1="2389.963" y1="636.788" x2="2469.963" y2="636.788"/>
		<text transform="matrix(1 0 0 1 2482.0508 304.7871)" font-family="'Krungthep'" font-size="32">Into Tech</text>
		<text transform="matrix(1 0 0 1 2482.0508 381.5874)" font-family="'Krungthep'" font-size="32">Vehicles</text>
		<text transform="matrix(1 0 0 1 2482.0508 458.3877)" font-family="'Krungthep'" font-size="32">Trains</text>
		<text transform="matrix(1 0 0 1 2482.0508 535.1875)" font-family="'Krungthep'" font-size="32">Planes</text>
		<text transform="matrix(1 0 0 1 2482.0508 611.9878)" font-family="'Krungthep'" font-size="32">Aerospace</text>
		<text transform="matrix(1 0 0 1 2482.0508 688.7876)" font-family="'Krungthep'" font-size="32">Ext. Links</text>
		<line fill="none" stroke="#58595B" stroke-miterlimit="10" x1="2469.514" y1="323.788" x2="2669.514" y2="323.788"/>
		<line fill="none" stroke="#58595B" stroke-miterlimit="10" x1="2469.494" y1="405.788" x2="2669.494" y2="405.788"/>
		<line fill="none" stroke="#58595B" stroke-miterlimit="10" x1="2468.963" y1="482.788" x2="2668.963" y2="482.788"/>
		<line fill="none" stroke="#58595B" stroke-miterlimit="10" x1="2468.963" y1="557.788" x2="2668.963" y2="557.788"/>
		<line fill="none" stroke="#58595B" stroke-miterlimit="10" x1="2469.963" y1="636.788" x2="2669.963" y2="636.788"/>
		<line fill="none" stroke="#58595B" stroke-miterlimit="10" x1="2468.963" y1="264.647" x2="2468.963" y2="714.648"/>
	</g>
	<g display="inline">
		<path opacity="0.7" fill="#FFFFFF" enable-background="new    " d="M1919,809.006h-68.571c-6.312,0-11.429-4.479-11.429-10v-430
			c0-5.522,5.116-10,11.429-10H1919"/>
		<line fill="none" stroke="#58595B" stroke-miterlimit="10" x1="1839" y1="418.146" x2="1919" y2="418.146"/>
		<line fill="none" stroke="#58595B" stroke-miterlimit="10" x1="1839" y1="500.146" x2="1919" y2="500.146"/>
		<line fill="none" stroke="#58595B" stroke-miterlimit="10" x1="1840" y1="577.146" x2="1920" y2="577.146"/>
		<line fill="none" stroke="#58595B" stroke-miterlimit="10" x1="1840" y1="652.146" x2="1920" y2="652.146"/>
		<line fill="none" stroke="#58595B" stroke-miterlimit="10" x1="1840" y1="731.146" x2="1920" y2="731.146"/>
	</g>
	<g display="inline">
		<path fill="#CE3828" d="M1902.5,389.611l-8.438-8.667v-13h-5.625v7.222L1880,366.5l-22.5,23.111v1.443h5.626V405.5h14.062v-8.667
			h5.625v8.667h14.062v-14.445h5.626L1902.5,389.611L1902.5,389.611z"/>
	</g>
	<g display="inline">
		<g>
			<g>
				<defs>
					<rect id="SVGID_6_" x="1857.5" y="443.5" width="45" height="39"/>
				</defs>
				<clipPath id="SVGID_7_">
					<use xlink:href="#SVGID_6_"  overflow="visible"/>
				</clipPath>
				<path clip-path="url(#SVGID_7_)" d="M1902.286,461.294l-0.509-1.616c-0.285-0.896-1.185-1.617-2.011-1.617h-1.856
					c-1.393-4.228-3.094-9.33-3.589-10.525c-0.771-1.859-3.232-2.697-4.585-3.106c0,0-2.262-0.929-9.802-0.929
					c-7.538,0-9.799,0.929-9.799,0.929c-1.584,0.574-3.786,1.385-4.662,3.189c-0.409,0.848-2.141,6.096-3.549,10.439h-1.816
					c-0.826,0-1.727,0.725-2.01,1.62l-0.515,1.616c-0.282,0.896,0.157,1.617,0.983,1.617h1.796
					c-0.232,0.729-0.373,1.168-0.373,1.168c-0.145,0.264-0.247,1.475-0.247,1.8v14.734c0,0.946,0.709,1.714,1.583,1.714h5.808
					c0.875,0,1.584-0.768,1.584-1.714v-3.142h22.437v3.142c0,0.946,0.709,1.714,1.584,1.714h5.807c0.875,0,1.584-0.768,1.584-1.714
					v-14.736c0-0.325-0.104-1.534-0.246-1.798c0,0-0.146-0.439-0.381-1.168h1.803
					C1902.129,462.911,1902.57,462.188,1902.286,461.294L1902.286,461.294z M1868.688,470.32h-2.401
					c-2.15,0-4.296-0.312-4.296-1.788v-1.788c0-1.728,0.925-1.788,1.925-1.788c0.974,0,2.906,0.891,4.179,1.508
					c1.387,0.67,2.938,1.231,2.938,2.346C1871.031,469.845,1870.496,470.32,1868.688,470.32L1868.688,470.32z M1865.341,458.711
					c1.179-5.304,2.465-8.3,2.749-9.136c0.227-0.606,0.446-2.483,11.848-2.483c11.402,0,11.671,2.142,11.698,2.166
					c0.354,1.137,1.744,4.562,2.859,9.45c0,0-4.815,1.775-14.561,1.775C1870.188,460.484,1865.341,458.711,1865.341,458.711
					L1865.341,458.711z M1888.84,468.812c0-1.12,1.552-1.679,2.939-2.35c1.271-0.612,3.203-1.508,4.178-1.508
					c1,0,1.926,0.062,1.926,1.788v1.79h0.002c0,1.478-2.146,1.788-4.296,1.788h-2.403
					C1889.377,470.32,1888.84,469.845,1888.84,468.812L1888.84,468.812z"/>
			</g>
		</g>
	</g>
	<g display="inline">
		<path d="M1879.993,519.788c-12.372,0-22.493,1.021-22.493,8.209v19.505c0,3.899,4.504,7.189,9.846,7.189l-4.215,3.073v1.022
			h33.739v-1.022l-4.216-3.073c5.342,0,9.846-3.29,9.846-7.189v-19.505C1902.5,520.809,1892.379,519.788,1879.993,519.788
			L1879.993,519.788z M1867.346,550.579c-2.252,0-4.215-1.433-4.215-3.077c0-1.644,1.963-3.074,4.215-3.074s4.216,1.432,4.216,3.074
			C1871.562,549.146,1869.598,550.579,1867.346,550.579L1867.346,550.579z M1877.191,538.261h-14.062v-10.264h14.062V538.261z
			 M1892.654,550.579c-2.252,0-4.216-1.433-4.216-3.077c0-1.644,1.964-3.074,4.216-3.074s4.216,1.432,4.216,3.074
			C1896.87,549.146,1894.906,550.579,1892.654,550.579L1892.654,550.579z M1896.87,538.261h-14.062v-10.264h14.062V538.261z"/>
	</g>
	<g display="inline">
		<g>
			<g>
				<defs>
					<rect id="SVGID_8_" x="1857.5" y="596.788" width="45" height="39"/>
				</defs>
				<clipPath id="SVGID_9_">
					<use xlink:href="#SVGID_8_"  overflow="visible"/>
				</clipPath>
				<path clip-path="url(#SVGID_9_)" d="M1899.48,596.831c-1.343-0.269-3.997,0.79-5.938,2.37l-9.82,8
					c-0.385,0.317-1.104,0.438-1.6,0.271l-17.906-6.008c-0.499-0.167-1.243-0.074-1.665,0.212l-3.53,2.37
					c-0.418,0.284-0.39,0.702,0.068,0.936l16.498,8.439c0.458,0.238,0.434,0.578-0.027,0.801c-1.793,0.86-5.255,3.659-9.37,8.666
					c-0.312,0.379-0.876,0.694-1.403,0.639l-4.125-0.461c-0.527-0.058-1.235,0.181-1.579,0.531l-1.383,1.406
					c-0.344,0.352-0.233,0.801,0.245,1.003l3.679,1.548c0.482,0.198,0.675,0.698,0.512,1.138c-0.181,0.464-0.355,1.087-0.359,1.747
					c0,0.46,0.52,0.925,1.052,0.941c0.74,0.032,1.809-0.053,2.823-0.588c0.454-0.241,0.944-0.167,1.174,0.251l2.173,4.025
					c0.226,0.418,0.749,0.523,1.166,0.236l0.962-0.659c0.417-0.286,0.725-0.893,0.684-1.354l-0.368-4.142
					c-0.041-0.46,0.299-1.021,0.754-1.262c2.082-1.116,7.568-4.229,10.017-7.344c0.303-0.383,0.736-0.394,1.018-0.004l9.602,13.236
					c0.282,0.39,0.812,0.436,1.187,0.105l1.955-1.75c0.373-0.33,0.536-0.953,0.368-1.392l-6.301-16.371
					c-0.168-0.437-0.013-1.067,0.348-1.407l8.671-8.187c1.801-1.701,3.171-4.058,3.057-5.266
					C1901.997,598.301,1900.818,597.101,1899.48,596.831L1899.48,596.831z"/>
			</g>
		</g>
	</g>
	<g display="inline">
		<g>
			<g>
				<defs>
					<rect id="SVGID_10_" x="1858.5" y="672.648" width="45" height="39"/>
				</defs>
				<clipPath id="SVGID_11_">
					<use xlink:href="#SVGID_10_"  overflow="visible"/>
				</clipPath>
				<path clip-path="url(#SVGID_11_)" d="M1901.898,672.648c0,0-6.514-0.152-13.018,2.649c-1.984,0.786-4.156,2.034-5.965,3.587
					c-2.921,2.53-7.457,7.169-11.03,10.924h-7.941l-3.617,4.678l6.133,1.43c0.019,0.192,0.079,0.459,0.246,0.823l-0.953,1.807
					c0,0-0.36,0.623,2.349,3.115c2.895,2.499,3.795,2.187,3.795,2.187l2.25-0.884c0.336,0.091,0.582,0.122,0.75,0.122l1.703,5.438
					l5.418-3.115v-7.069c4.377-3.055,9.752-6.894,12.653-9.316c1.81-1.555,3.248-3.427,4.333-5.142
					C1902.075,678.262,1901.898,672.648,1901.898,672.648L1901.898,672.648z M1889.244,686.686c-1.985,0-3.609-1.401-3.609-3.115
					c0-1.721,1.624-3.122,3.609-3.122c1.994,0,3.618,1.401,3.618,3.122C1892.862,685.284,1891.238,686.686,1889.244,686.686
					L1889.244,686.686z M1870.271,705.41c0.361,0.151,0.537,0.312,0.899,0.464c-0.362,0.312-0.724,0.785-1.085,1.095
					c-4.156,3.589-11.561,3.117-11.561,3.117s-0.547-6.391,3.608-9.979c0.361-0.312,0.908-0.625,1.271-0.939
					c0.177,0.314,0.353,0.467,0.538,0.779c-2.709,2.961-2.349,7.487-2.349,7.487S1866.839,707.748,1870.271,705.41L1870.271,705.41z
					"/>
			</g>
		</g>
	</g>
	<g display="inline">
		<path d="M1865.824,768.142l1.695,6.573h2.514l3.161-10.219h-2.577l-1.873,6.691l-1.65-6.691h-2.512l-1.707,6.691l-1.844-6.691
			h-2.531l3.115,10.219h2.539L1865.824,768.142z"/>
		<path d="M1881.863,764.496h-2.514l-1.695,6.69l-1.855-6.69h-2.529l3.123,10.219h2.531l1.669-6.573l1.706,6.573h2.503l3.171-10.219
			h-2.567l-1.892,6.69L1881.863,764.496z"/>
		<g>
			<g>
				<defs>
					<rect id="SVGID_12_" x="1858.5" y="750.408" width="45" height="39"/>
				</defs>
				<clipPath id="SVGID_13_">
					<use xlink:href="#SVGID_12_"  overflow="visible"/>
				</clipPath>
				<path clip-path="url(#SVGID_13_)" d="M1900.174,764.496l-1.892,6.69l-1.643-6.69h-2.521l-1.696,6.69l-1.845-6.69h-2.541
					l3.125,10.219h2.54l1.659-6.573l1.707,6.573h2.512l3.162-10.219H1900.174z"/>
			</g>
			<g>
				<defs>
					<rect id="SVGID_14_" x="1858.5" y="750.408" width="45" height="39"/>
				</defs>
				<clipPath id="SVGID_15_">
					<use xlink:href="#SVGID_14_"  overflow="visible"/>
				</clipPath>
				<path clip-path="url(#SVGID_15_)" d="M1880.621,750.041c-7.621,0-14.176,4.674-17.189,11.391h34.375
					C1894.797,754.715,1888.242,750.041,1880.621,750.041L1880.621,750.041z"/>
			</g>
		</g>
		<path d="M1880.621,789.38c7.621,0,14.166-4.659,17.186-11.38h-34.375C1866.454,784.721,1873,789.38,1880.621,789.38
			L1880.621,789.38z"/>
	</g>
</g>
<g id="page_divider" display="none">
	<rect y="1499.714" display="inline" fill="#2A2A2B" width="1920" height="300"/>
</g>
<g id="into_tech_shadow" display="none">
	<g display="inline">
		<path fill="#6D6E71" d="M602.783,402.003l-7.783,5l-20.967-5L566,209.5l8.033-4.997h28.75V402.003z"/>
		<path fill="#6D6E71" d="M681.031,401.003l-29.75-123.25h-1v123.25l-8.031,6l-16.719-6l-8-191.753l8-5.747h31.75l28.5,126.75h1
			l-8-121.003l8-5.747h25v197.5l-8.032,6L681.031,401.003z"/>
		<path fill="#6D6E71" d="M798.029,227.503l-8.029,6l-13.471-6v173.5l-8.029,6l-20.721-6v-173.5h-21.75l-8-18.253l8-5.747h72
			V227.503z"/>
		<path fill="#6D6E71" d="M890.527,361.753c0,9.168-0.543,16.5-1.625,22c-1.086,5.5-3.168,9.711-6.25,12.625
			c-3.086,2.918-7.293,4.832-12.625,5.75c-5.336,0.914-12.25,1.375-20.75,1.375s-15.418-0.461-20.75-1.375
			c-5.336-0.918-9.5-2.832-12.5-5.75c-3-2.914-5.043-7.125-6.125-12.625c-1.086-5.5-1.625-12.832-1.625-22v-119.25
			c0-9.164,0.539-16.457,1.625-21.875c1.082-5.414,3.125-9.582,6.125-12.5c3-2.914,7.164-4.832,12.5-5.75
			c5.332-0.914,12.25-1.375,20.75-1.375s15.414,0.461,20.75,1.375c5.332,0.918,9.539,2.836,12.625,5.75
			c3.082,2.918,5.164,7.086,6.25,12.5c1.082,5.418,1.625,12.711,1.625,21.875V361.753z M861.527,242.503
			c0-6.664-0.75-10.957-2.25-12.875c-1.5-1.914-4.836-2.875-10-2.875c-2.668,0-4.793,0.211-6.375,0.625
			c-1.586,0.418-2.836,1.211-3.75,2.375c-0.918,1.168-1.5,2.793-1.75,4.875c-0.25,2.086-0.375,4.711-0.375,7.875v119.25
			c0,3.5,0.125,6.293,0.375,8.375c0.25,2.086,0.832,3.711,1.75,4.875c0.914,1.168,2.164,1.961,3.75,2.375
			c1.582,0.418,3.707,0.625,6.375,0.625c2.664,0,4.789-0.207,6.375-0.625c1.582-0.414,2.832-1.25,3.75-2.5
			c0.914-1.25,1.5-2.914,1.75-5c0.25-2.082,0.375-4.789,0.375-8.125V242.503z"/>
	</g>
	<g display="inline">
		<path fill="#6D6E71" d="M1002.533,227.503h-21.5v173.5l-22.033,6l-6.717-6v-173.5l-14.617,6l-7.133-6v-24h72l7,5.747
			L1002.533,227.503z"/>
		<path fill="#6D6E71" d="M1073.28,401.003l-49.447,6l-7.053-6v-197.5h56.25l7,5.747l-7,18.003h-27.5v28.75h26.75l7,5.831l-7,16.919
			h-26.75v97.5h27.75l7,6.081L1073.28,401.003z"/>
		<path fill="#6D6E71" d="M1141.277,287.253v-44.75c0-3.332-0.125-6.039-0.375-8.125c-0.25-2.082-0.836-3.664-1.75-4.75
			c-0.918-1.082-2.168-1.832-3.75-2.25c-1.586-0.414-3.625-0.625-6.125-0.625c-2.668,0-4.793,0.211-6.375,0.625
			c-1.586,0.418-2.836,1.211-3.75,2.375c-0.918,1.168-1.5,2.793-1.75,4.875c-0.25,2.086-0.375,4.711-0.375,7.875v119.25
			c0,3.5,0.125,6.293,0.375,8.375c0.25,2.086,0.832,3.711,1.75,4.875c0.914,1.168,2.164,1.961,3.75,2.375
			c1.582,0.418,3.707,0.625,6.375,0.625c2.5,0,4.539-0.207,6.125-0.625c1.582-0.414,2.832-1.207,3.75-2.375
			c0.914-1.164,1.5-2.789,1.75-4.875c0.25-2.082,0.375-4.875,0.375-8.375v-45.75h27.75l7,5.998l-7,39.752
			c0,9.168-0.543,16.5-1.625,22c-1.086,5.5-3.125,9.711-6.125,12.625c-3,2.918-7.086,4.832-12.25,5.75
			c-5.168,0.914-11.75,1.375-19.75,1.375c-8.5,0-15.418-0.461-20.75-1.375c-5.336-0.918-9.5-2.832-12.5-5.75
			c-3-2.914-5.043-7.125-6.125-12.625c-1.086-5.5-1.625-12.832-1.625-22v-119.25c0-9,0.582-16.25,1.75-21.75
			c1.164-5.5,3.289-9.707,6.375-12.625c3.082-2.914,7.289-4.832,12.625-5.75c5.332-0.914,12.082-1.375,20.25-1.375
			c8,0,14.582,0.461,19.75,1.375c5.164,0.918,9.25,2.836,12.25,5.75c3,2.918,5.039,7.086,6.125,12.5
			c1.082,5.418,1.625,12.711,1.625,21.875v44.75l-20.861,6L1141.277,287.253z"/>
		<path fill="#6D6E71" d="M1271.775,401.003l-22.108,6l-6.892-6v-108h-25v108l-21.942,6l-6.808-6v-197.5h28.75l7,5.997l-7,59.253h25
			v-65.25h29l7,5.831L1271.775,401.003z"/>
	</g>
</g>
<g id="into_tech" display="none">
	
		<text transform="matrix(1 0 0 1 554.5332 407.0029)" display="inline" fill="#FFFFFF" font-family="'KenyanCoffeeRg-Regular'" font-size="250">INTO TECH</text>
</g>
<g id="bands" display="none">
	<g display="inline">
		
			<image overflow="visible" opacity="0.7" enable-background="new    " width="221" height="275" xlink:href="5EAB0F2B238FAE04.png"  transform="matrix(0.2357 0 0 0.24 517 435)">
		</image>
		<g>
			<polygon fill="#A62425" points="551,483 529,483 535,465 529,447 551,447 			"/>
		</g>
	</g>
	<g display="inline">
		
			<image overflow="visible" opacity="0.7" enable-background="new    " width="221" height="275" xlink:href="5EAB0F2B238FAE03.png"  transform="matrix(0.2357 0 0 0.24 1282 435)">
		</image>
		<g>
			<polygon fill="#A62626" points="1294,483 1316,483 1310,465 1316,447 1294,447 			"/>
		</g>
	</g>
</g>
<g id="subtitle" display="none">
	<g display="inline">
		
			<image overflow="visible" opacity="0.7" enable-background="new    " width="3317" height="338" xlink:href="5EAB0F2B238FAE0C.png"  transform="matrix(0.2397 0 0 0.2372 528 427)">
		</image>
		<g>
			<rect x="540" y="439" fill="#CE3828" width="765" height="50"/>
		</g>
	</g>
	<g display="inline">
		
			<image overflow="visible" opacity="0.7" enable-background="new    " width="3183" height="296" xlink:href="5EAB0F2B238FAE0F.png"  transform="matrix(0.2396 0 0 0.2351 547.5332 435.7803)">
		</image>
		<g>
			<text transform="matrix(1 0 0 1 557.5332 478)" fill="#FFFFFF" font-family="'KenyanCoffeeRg-Regular'" font-size="36">• VEHICLE, TRANSPORTATION, AND AEROSPACE TECH &amp; ENGINEERING • </text>
		</g>
	</g>
</g>
<g id="fonts_x2F_colors" display="none">
	<text transform="matrix(1 0 0 1 1783 -113)" display="inline" font-family="'Krungthep'" font-size="33">KRUNG THE P</text>
	<text transform="matrix(1 0 0 1 1803 -151)" display="inline" font-family="'KenyanCoffeeRg-Regular'" font-size="33">KENYAN COFFEE</text>
	<text transform="matrix(1 0 0 1 1805 -78)" display="inline" font-family="'Helvetica'" font-size="33">Helvetica</text>
	<rect x="2013.382" y="-175" display="inline" fill="#FFFFFF" width="97" height="97"/>
	<rect x="2243.382" y="-175" display="inline" fill="#CE3828" width="97" height="97"/>
	<rect x="2129.382" y="-175" display="inline" fill="#6D6E71" width="97" height="97"/>
</g>
<rect opacity="0.5" fill="url(#Crosses_2)" width="1920" height="3500"/>
</svg>
